<svg width="19" height="26" viewBox="0 0 19 26" fill="none" xmlns="http://www.w3.org/2000/svg">
<path d="M14.007 8.79596C14.007 8.79596 12.873 8.87379 12.6559 10.5736C12.4387 12.2734 11.0643 12.3462 10.5942 12.3824C10.1241 12.4186 8.96635 12.6353 8.71301 14.7698C8.45968 16.9043 7.26615 16.1443 7.01282 16.1805" stroke="white" stroke-width="0.7783" stroke-miterlimit="10" stroke-linecap="round"/>
<path d="M1.03244 14.3943C0.954613 14.6589 1.0161 14.9563 1.22468 15.1648L2.66259 16.6047C2.80855 16.7506 3.00647 16.8326 3.21285 16.8326C3.41923 16.8326 3.61716 16.7506 3.76311 16.6047L4.34333 16.019C4.52409 15.8383 4.73869 15.695 4.97486 15.5972C5.21103 15.4995 5.46415 15.4492 5.71976 15.4493C5.97528 15.4493 6.22829 15.399 6.46436 15.3012C6.70043 15.2034 6.91493 15.0601 7.09561 14.8794C7.27629 14.6987 7.41961 14.4842 7.51739 14.2482C7.61518 14.0121 7.66551 13.7591 7.66551 13.5036C7.66551 12.9875 7.8705 12.4926 8.2354 12.1277C8.6003 11.7628 9.09521 11.5578 9.61126 11.5578C9.86681 11.5578 10.1199 11.5075 10.356 11.4097C10.592 11.3118 10.8066 11.1685 10.9872 10.9878C11.1679 10.807 11.3112 10.5925 11.409 10.3564C11.5068 10.1203 11.5571 9.86722 11.557 9.61166C11.557 8.53683 12.4279 7.66591 13.5028 7.66591C14.5776 7.66591 15.4485 6.79499 15.4485 5.72016C15.4485 5.18313 15.6664 4.69592 16.0186 4.34413L16.6047 3.76352C16.677 3.69124 16.7343 3.60543 16.7735 3.51098C16.8126 3.41653 16.8327 3.3153 16.8327 3.21306C16.8327 3.11083 16.8126 3.00959 16.7735 2.91515C16.7343 2.8207 16.677 2.73489 16.6047 2.66261L15.1644 1.22548C15.065 1.12651 14.9405 1.05642 14.8043 1.0227C14.6681 0.988979 14.5253 0.99289 14.3912 1.03402C13.4308 1.15271 12.684 1.96292 12.684 2.95525C12.6841 3.21081 12.6339 3.4639 12.5362 3.70004C12.4385 3.93618 12.2951 4.15074 12.1144 4.33145C11.9337 4.51216 11.7192 4.65547 11.483 4.7532C11.2469 4.85093 10.9938 4.90115 10.7382 4.901C10.4827 4.901 10.2296 4.95134 9.99354 5.04915C9.75744 5.14696 9.54293 5.29031 9.36225 5.47104C9.18156 5.65176 9.03825 5.8663 8.94049 6.10241C8.84272 6.33853 8.79243 6.59159 8.79248 6.84714C8.79248 7.10269 8.74214 7.35574 8.64434 7.59184C8.54653 7.82793 8.40317 8.04245 8.22245 8.22313C8.04173 8.40382 7.82719 8.54713 7.59107 8.64489C7.35496 8.74265 7.1019 8.79294 6.84635 8.79289C6.3303 8.79289 5.83539 8.99789 5.47049 9.36279C5.10559 9.72769 4.90059 10.2226 4.90059 10.7386C4.90059 10.9942 4.85027 11.2472 4.75248 11.4832C4.6547 11.7193 4.51138 11.9338 4.3307 12.1145C4.15002 12.2952 3.93552 12.4385 3.69945 12.5363C3.46338 12.6341 3.21036 12.6844 2.95484 12.6844C1.96134 12.6844 1.15036 13.4323 1.03244 14.3943ZM2.19989 22.6891C2.12206 22.9537 2.18355 23.251 2.39213 23.4596L3.83004 24.8998C3.976 25.0457 4.17392 25.1277 4.3803 25.1277C4.58668 25.1277 4.78461 25.0457 4.93056 24.8998L5.51078 24.3138C5.69129 24.1327 5.90584 23.9891 6.14207 23.8914C6.3783 23.7936 6.63154 23.7435 6.88721 23.744C7.14273 23.744 7.39574 23.6937 7.63181 23.5959C7.86788 23.4981 8.08238 23.3548 8.26306 23.1741C8.44374 22.9935 8.58706 22.779 8.68485 22.5429C8.78263 22.3068 8.83296 22.0538 8.83296 21.7983C8.83296 21.2822 9.03795 20.7873 9.40285 20.4224C9.76775 20.0575 10.2627 19.8525 10.7787 19.8525C11.2948 19.8525 11.7897 19.6475 12.1546 19.2826C12.5195 18.9177 12.7245 18.4228 12.7245 17.9068C12.7245 16.832 13.5954 15.961 14.6702 15.961C15.745 15.961 16.616 15.0897 16.616 14.0153C16.616 13.4779 16.8339 12.991 17.1861 12.6389L17.7721 12.0583C17.918 11.9123 18 11.7144 18 11.508C18 11.3016 17.918 11.1037 17.7721 10.9577L16.3319 9.5206C16.2323 9.42186 16.1078 9.35187 15.9717 9.31803C15.8356 9.28419 15.6929 9.28776 15.5586 9.32836C14.5982 9.44744 13.8514 10.2573 13.8514 11.2504C13.8516 11.5059 13.8014 11.759 13.7036 11.9952C13.6059 12.2313 13.4626 12.4459 13.2819 12.6266C13.1012 12.8073 12.8866 12.9506 12.6505 13.0483C12.4143 13.1461 12.1612 13.1963 11.9057 13.1961C11.3896 13.1961 10.8947 13.4011 10.5298 13.766C10.1649 14.1309 9.95993 14.6258 9.95993 15.1419C9.95993 15.3974 9.90959 15.6505 9.81179 15.8866C9.71398 16.1227 9.57062 16.3372 9.3899 16.5179C9.20918 16.6986 8.99464 16.8419 8.75852 16.9396C8.52241 17.0374 8.26935 17.0877 8.0138 17.0876C7.49775 17.0876 7.00284 17.2926 6.63794 17.6575C6.27304 18.0224 6.06805 18.5173 6.06805 19.0334C6.06805 19.5494 5.86305 20.0443 5.49815 20.4092C5.13325 20.7741 4.63834 20.9791 4.12229 20.9791C3.12879 20.9791 2.31781 21.7275 2.19989 22.6891Z" fill="#EA5A47"/>
<path d="M14.0658 4.33789C14.0658 4.85394 13.8608 5.34885 13.4959 5.71374C13.131 6.07864 12.6361 6.28364 12.12 6.28364C11.604 6.28364 11.1091 6.48864 10.7442 6.85354C10.3793 7.21844 10.1743 7.71335 10.1743 8.22939C10.1743 8.48494 10.124 8.738 10.0263 8.97412C9.92853 9.21023 9.78521 9.42478 9.60453 9.6055C9.42384 9.78622 9.20933 9.92958 8.97323 10.0274C8.73714 10.1252 8.48409 10.1755 8.22854 10.1755C7.15409 10.1748 6.28279 11.0464 6.28279 12.1213C6.28279 13.1961 5.41187 14.067 4.33704 14.067" stroke="black" stroke-width="0.7783" stroke-linecap="round" stroke-linejoin="round"/>
<path d="M15.2333 12.633C15.2333 13.1491 15.0283 13.644 14.6634 14.0089C14.2985 14.3738 13.8036 14.5788 13.2876 14.5788C12.7715 14.5788 12.2766 14.7838 11.9117 15.1487C11.5468 15.5136 11.3418 16.0085 11.3418 16.5245C11.3418 16.78 11.2915 17.0331 11.1937 17.2691C11.0959 17.5052 10.9526 17.7197 10.7719 17.9004C10.5912 18.0811 10.3767 18.2244 10.1407 18.3222C9.90459 18.4199 9.65158 18.4703 9.39606 18.4703C8.88001 18.4703 8.3851 18.6753 8.0202 19.0402C7.6553 19.4051 7.45031 19.9 7.45031 20.416C7.45031 20.9321 7.24531 21.427 6.88041 21.7919C6.51551 22.1568 6.0206 22.3618 5.50456 22.3618M1.03244 14.3943C0.954613 14.6589 1.0161 14.9563 1.22468 15.1648L2.66259 16.6047C2.80855 16.7506 3.00647 16.8326 3.21285 16.8326C3.41923 16.8326 3.61716 16.7506 3.76311 16.6047L4.34333 16.019C4.52409 15.8383 4.73869 15.695 4.97486 15.5972C5.21103 15.4995 5.46415 15.4492 5.71976 15.4493C5.97528 15.4493 6.22829 15.399 6.46436 15.3012C6.70043 15.2034 6.91493 15.0601 7.09561 14.8794C7.27629 14.6987 7.41961 14.4842 7.51739 14.2482C7.61518 14.0121 7.66551 13.7591 7.66551 13.5036C7.66551 12.9875 7.8705 12.4926 8.2354 12.1277C8.6003 11.7628 9.09521 11.5578 9.61126 11.5578C9.86681 11.5578 10.1199 11.5075 10.356 11.4097C10.592 11.3118 10.8066 11.1685 10.9872 10.9878C11.1679 10.807 11.3112 10.5925 11.409 10.3564C11.5068 10.1203 11.5571 9.86722 11.557 9.61166C11.557 8.53683 12.4279 7.66591 13.5028 7.66591C14.5776 7.66591 15.4485 6.79499 15.4485 5.72016C15.4485 5.18313 15.6664 4.69592 16.0186 4.34413L16.6047 3.76351C16.677 3.69124 16.7343 3.60543 16.7735 3.51098C16.8126 3.41653 16.8327 3.3153 16.8327 3.21306C16.8327 3.11083 16.8126 3.00959 16.7735 2.91515C16.7343 2.8207 16.677 2.73488 16.6047 2.66261L15.1644 1.22548C15.065 1.12651 14.9405 1.05642 14.8043 1.0227C14.6681 0.988979 14.5253 0.99289 14.3912 1.03402C13.4308 1.15271 12.684 1.96292 12.684 2.95525C12.6841 3.21081 12.6339 3.4639 12.5362 3.70004C12.4385 3.93618 12.2951 4.15074 12.1144 4.33145C11.9337 4.51216 11.7192 4.65547 11.483 4.7532C11.2469 4.85093 10.9938 4.90115 10.7382 4.901C10.4827 4.901 10.2296 4.95134 9.99354 5.04915C9.75744 5.14696 9.54293 5.29031 9.36225 5.47104C9.18156 5.65176 9.03825 5.8663 8.94049 6.10241C8.84272 6.33853 8.79243 6.59159 8.79248 6.84714C8.79248 7.10269 8.74214 7.35574 8.64434 7.59184C8.54653 7.82793 8.40317 8.04245 8.22245 8.22313C8.04173 8.40382 7.82719 8.54713 7.59107 8.64489C7.35496 8.74265 7.1019 8.79294 6.84635 8.79289C6.3303 8.79289 5.83539 8.99789 5.47049 9.36279C5.10559 9.72769 4.90059 10.2226 4.90059 10.7386C4.90059 10.9942 4.85027 11.2472 4.75248 11.4832C4.6547 11.7193 4.51138 11.9338 4.3307 12.1145C4.15002 12.2952 3.93552 12.4385 3.69945 12.5363C3.46338 12.6341 3.21036 12.6844 2.95484 12.6844C1.96134 12.6844 1.15036 13.4323 1.03244 14.3943Z" stroke="black" stroke-width="0.7783" stroke-linecap="round" stroke-linejoin="round"/>
<path d="M2.19992 22.6891C2.12209 22.9537 2.18358 23.251 2.39216 23.4596L3.83007 24.8998C3.97603 25.0457 4.17395 25.1277 4.38033 25.1277C4.58671 25.1277 4.78464 25.0457 4.93059 24.8998L5.51081 24.3138C5.69132 24.1327 5.90587 23.9891 6.1421 23.8914C6.37833 23.7936 6.63157 23.7435 6.88724 23.744C7.14276 23.744 7.39577 23.6937 7.63184 23.5959C7.86791 23.4982 8.08241 23.3548 8.26309 23.1741C8.44377 22.9935 8.58709 22.779 8.68488 22.5429C8.78266 22.3068 8.83299 22.0538 8.83299 21.7983C8.83299 21.2823 9.03799 20.7873 9.40288 20.4224C9.76778 20.0575 10.2627 19.8525 10.7787 19.8525C11.2948 19.8525 11.7897 19.6475 12.1546 19.2826C12.5195 18.9177 12.7245 18.4228 12.7245 17.9068C12.7245 16.832 13.5954 15.961 14.6702 15.961C15.7451 15.961 16.616 15.0897 16.616 14.0153C16.616 13.4779 16.8339 12.9911 17.1861 12.6389L17.7722 12.0583C17.9181 11.9123 18 11.7144 18 11.508C18 11.3016 17.9181 11.1037 17.7722 10.9577L16.3319 9.52061C16.2323 9.42187 16.1079 9.35188 15.9718 9.31804C15.8356 9.2842 15.6929 9.28777 15.5587 9.32837C14.5982 9.44745 13.8515 10.2573 13.8515 11.2504C13.8516 11.5059 13.8014 11.759 13.7037 11.9952C13.6059 12.2313 13.4626 12.4459 13.2819 12.6266C13.1012 12.8073 12.8866 12.9506 12.6505 13.0483C12.4144 13.1461 12.1613 13.1963 11.9057 13.1961C11.3897 13.1961 10.8948 13.4011 10.5299 13.766C10.165 14.1309 9.95997 14.6258 9.95997 15.1419C9.95997 15.3974 9.90963 15.6505 9.81182 15.8866C9.71401 16.1227 9.57065 16.3372 9.38993 16.5179C9.20921 16.6986 8.99467 16.8419 8.75855 16.9396C8.52244 17.0374 8.26938 17.0877 8.01383 17.0876C7.49778 17.0876 7.00287 17.2926 6.63797 17.6575C6.27307 18.0224 6.06808 18.5173 6.06808 19.0334C6.06808 19.5494 5.86308 20.0443 5.49818 20.4092C5.13328 20.7741 4.63837 20.9791 4.12232 20.9791C3.12882 20.9791 2.31784 21.7275 2.19992 22.6891Z" stroke="black" stroke-width="0.7783" stroke-linecap="round" stroke-linejoin="round"/>
</svg>
