<svg width="23" height="26" viewBox="0 0 23 26" fill="none" xmlns="http://www.w3.org/2000/svg">
<path d="M16.9397 17.6173C15.5814 17.6317 15.1254 18.9996 15.1254 18.9996C15.1254 18.9996 14.6598 19.9212 14.6598 21.3084V24.0587C14.6598 24.5819 14.2422 24.9995 13.719 24.9995H10.0663C9.94257 25.0001 9.81995 24.9762 9.70552 24.9292C9.59109 24.8821 9.48713 24.8129 9.39964 24.7254C9.31215 24.6379 9.24288 24.5339 9.19583 24.4195C9.14877 24.3051 9.12488 24.1824 9.12551 24.0587V21.3084C9.12551 19.9212 8.65992 18.9996 8.65992 18.9996C8.65992 18.9996 8.21833 17.6749 6.90796 17.6173C6.90796 17.6173 7.59434 17.5645 7.43595 17.5645C8.30473 17.4493 9.8599 17.0605 10.5079 15.7693C10.5079 15.7693 10.5079 14.6605 11.6167 14.6605C12.7254 14.6605 12.8166 15.7693 12.8166 15.7693C13.5606 17.2573 15.495 17.5453 16.2246 17.6029C16.1814 17.6077 16.1334 17.6077 16.0854 17.6173H16.9397Z" fill="#B1CC33" stroke="#B1CC33" stroke-width="0.863981" stroke-miterlimit="10"/>
<path d="M22.4154 12.3354C22.4154 15.2523 19.9646 17.6153 16.9416 17.6153C16.9185 17.6153 16.8998 17.6153 16.8768 17.6105C16.7664 17.6153 16.6507 17.6105 16.5446 17.6014C16.4448 17.5945 16.3445 17.5945 16.2446 17.6014H16.2259C15.6307 17.5553 14.2229 17.3523 13.3229 16.4662C13.3229 16.4662 17.9553 8.73359 18.0292 8.95823C18.1032 9.18286 2.64798 10.9142 11.6617 8.46336C15.3907 7.44818 16.4198 6.18821 16.212 4.99303L11.703 1C11.8182 1 11.9291 1.0048 12.0399 1.0096C15.6629 1.13392 18.6676 3.62122 19.4476 6.92595C19.558 7.41554 19.8585 7.83985 20.2737 8.14465C21.5797 9.10895 22.4154 10.6272 22.4154 12.335" fill="#5C9E31"/>
<path d="M13.3228 16.4663C13.3228 16.4663 12.9489 16.0415 12.8149 15.7694C12.8149 15.7694 12.7228 14.6615 11.615 14.6615C10.5072 14.6615 10.5076 15.7694 10.5076 15.7694C9.86157 17.0615 8.30592 17.4493 7.43378 17.5645C7.33202 17.5645 7.23075 17.5693 7.12467 17.5789C6.93075 17.6015 6.73204 17.6154 6.5338 17.6154C6.46468 17.6154 6.39556 17.6106 6.33077 17.6106C3.37211 17.5324 1 15.1924 1 12.3173C1 10.5634 1.88606 9.00774 3.24779 8.04344C3.6817 7.73432 3.95818 7.26777 4.09257 6.76043C4.81688 3.96785 7.14291 1.78485 10.0689 1.17575C10.2868 1.12717 10.5071 1.09032 10.7289 1.06535C10.8398 1.05095 10.9507 1.03751 11.0659 1.02791C11.2737 1.00967 8.74463 1.00055 11.7028 1.00055C15.6882 1.00055 19.949 7.42233 11.6615 8.46343C21.101 4.3504 24.5569 17.7901 13.3228 16.4663Z" fill="#5C9E31"/>
<path d="M9.17835 18.2662C9.43338 18.5415 9.72737 18.7779 10.051 18.9679C9.71601 18.7805 9.41102 18.544 9.1462 18.2662C8.81884 17.9201 8.38013 17.7031 7.91406 17.6153H7.98318C8.43533 17.7031 8.86012 17.9201 9.17835 18.2662ZM16.0878 17.6153C15.5939 17.6753 15.1374 17.8874 14.7957 18.2474C14.4501 18.6154 14.0354 18.9117 13.5753 19.1192C13.1151 19.3268 12.6185 19.4416 12.114 19.457C13.088 19.4052 14.0021 18.9704 14.657 18.2474C14.9891 17.8874 15.4326 17.6753 15.9078 17.6153H16.0878Z" fill="#B1CC33"/>
<path d="M16.9417 17.6153C15.5799 17.634 15.123 19.0001 15.123 19.0001C15.123 19.0001 14.6617 19.9231 14.6617 21.3079V24.0582C14.6618 24.1819 14.6376 24.3044 14.5903 24.4187C14.543 24.5331 14.4736 24.6369 14.3862 24.7244C14.2987 24.8119 14.1948 24.8812 14.0805 24.9285C13.9662 24.9758 13.8437 25.0001 13.72 24.9999C13.72 20.56 14.5792 17.2198 14.5792 17.2198C14.8796 18.1951 16.9417 17.6153 16.9417 17.6153Z" fill="#5C9E31" stroke="#5C9E31" stroke-width="0.863981" stroke-miterlimit="10" stroke-linejoin="round"/>
<path d="M7.21649 17.5808C7.0149 17.6038 6.81042 17.6153 6.60306 17.6153C3.66313 17.6153 1.2771 15.2432 1.2771 12.3172C1.2771 10.5624 2.13484 9.00816 3.45481 8.0429C3.8772 7.73426 4.1484 7.26915 4.27608 6.76132C5.10838 3.45084 8.11983 1.00049 11.703 1.00049C15.3408 1.00049 18.3921 3.53195 19.1644 6.92404C19.2762 7.41651 19.5666 7.83938 19.9679 8.1461C21.2322 9.11087 22.0463 10.6267 22.0463 12.3354C22.0463 15.2523 19.6693 17.6153 16.7385 17.6153C16.6611 17.6153 16.5843 17.6137 16.5081 17.6105" stroke="black" stroke-width="0.959979" stroke-miterlimit="10"/>
<path d="M7.21649 17.5808C7.0149 17.6038 6.81042 17.6153 6.60306 17.6153C3.66313 17.6153 1.2771 15.2432 1.2771 12.3172C1.2771 10.5624 2.13484 9.00816 3.45481 8.0429C3.8772 7.73426 4.1484 7.26915 4.27608 6.76132C5.10838 3.45084 8.11983 1.00049 11.703 1.00049C15.3408 1.00049 18.3921 3.53195 19.1644 6.92404C19.2762 7.41651 19.5666 7.83938 19.9679 8.1461C21.2322 9.11087 22.0463 10.6267 22.0463 12.3354C22.0463 15.2523 19.6693 17.6153 16.7385 17.6153C16.6611 17.6153 16.5843 17.6137 16.5081 17.6105" stroke="black" stroke-width="0.959979" stroke-miterlimit="10"/>
<path d="M16.5077 17.6153C16.5077 17.6153 16.4108 17.6153 16.2447 17.6014H16.226M7.43402 17.5645C7.06443 17.6153 6.8158 17.6153 6.8158 17.6153" stroke="black" stroke-width="0.959979" stroke-miterlimit="10" stroke-linecap="round" stroke-linejoin="round"/>
<path d="M6.8158 17.6154C6.8158 17.6154 9.58486 17.6154 10.5079 15.7693" stroke="black" stroke-width="0.959979" stroke-miterlimit="10" stroke-linecap="round" stroke-linejoin="round"/>
<path d="M15.123 18.9996C15.123 18.9996 14.6617 19.9231 14.6617 21.3074V24.0578C14.6617 24.3077 14.5625 24.5473 14.3858 24.724C14.2091 24.9007 13.9694 25 13.7195 25H10.0654C9.81546 25 9.57581 24.9007 9.39911 24.724C9.2224 24.5473 9.12314 24.3077 9.12314 24.0578V21.3074C9.12314 19.9231 8.66187 19.0001 8.66187 19.0001" stroke="black" stroke-width="0.959979" stroke-miterlimit="10" stroke-linecap="round"/>
<path d="M16.5075 17.6154C16.5075 17.6154 13.738 17.6154 12.8154 15.7693" stroke="black" stroke-width="0.959979" stroke-miterlimit="10" stroke-linecap="round" stroke-linejoin="round"/>
<path d="M7.21649 17.5808C7.0149 17.6038 6.81042 17.6153 6.60306 17.6153C3.66313 17.6153 1.2771 15.2432 1.2771 12.3172C1.2771 10.5624 2.13484 9.00816 3.45481 8.0429C3.8772 7.73426 4.1484 7.26915 4.27608 6.76132C5.10838 3.45084 8.11983 1.00049 11.703 1.00049C15.3408 1.00049 18.3921 3.53195 19.1644 6.92404C19.2762 7.41651 19.5666 7.83938 19.9679 8.1461C21.2322 9.11087 22.0463 10.6267 22.0463 12.3354C22.0463 15.2523 19.6693 17.6153 16.7385 17.6153C16.6611 17.6153 16.5843 17.6137 16.5081 17.6105" stroke="black" stroke-width="0.959979" stroke-miterlimit="10"/>
<path d="M16.5077 17.6153C16.5077 17.6153 16.4108 17.6153 16.2447 17.6014H16.226M7.43402 17.5645C7.06443 17.6153 6.8158 17.6153 6.8158 17.6153" stroke="black" stroke-width="0.959979" stroke-miterlimit="10" stroke-linecap="round" stroke-linejoin="round"/>
</svg>
