<svg width="37" height="26" viewBox="0 0 37 26" fill="none" xmlns="http://www.w3.org/2000/svg">
<path d="M30.0233 1C33.1059 1 35.6047 3.49935 35.6047 6.5814V23.8837C35.6047 24.1798 35.4871 24.4637 35.2777 24.6731C35.0684 24.8824 34.7845 25 34.4884 25H2.11628C1.82022 25 1.53629 24.8824 1.32695 24.6731C1.11761 24.4637 1 24.1798 1 23.8837V6.5814C1 6.28534 1.11761 6.00141 1.32695 5.79207C1.53629 5.58273 1.82022 5.46512 2.11628 5.46512L9.3721 4.30419L30.0233 1Z" fill="#FCEA2B"/>
<path d="M7.1397 21.6512C8.68096 21.6512 9.9304 20.4018 9.9304 18.8605C9.9304 17.3193 8.68096 16.0698 7.1397 16.0698C5.59844 16.0698 4.349 17.3193 4.349 18.8605C4.349 20.4018 5.59844 21.6512 7.1397 21.6512Z" fill="#F1B31C"/>
<path d="M29.4649 13.8372C31.0062 13.8372 32.2556 12.5878 32.2556 11.0465C32.2556 9.50524 31.0062 8.2558 29.4649 8.2558C27.9236 8.2558 26.6742 9.50524 26.6742 11.0465C26.6742 12.5878 27.9236 13.8372 29.4649 13.8372Z" fill="#F1B31C"/>
<path d="M25.5578 21.093C26.4826 21.093 27.2323 20.3434 27.2323 19.4186C27.2323 18.4939 26.4826 17.7442 25.5578 17.7442C24.6331 17.7442 23.8834 18.4939 23.8834 19.4186C23.8834 20.3434 24.6331 21.093 25.5578 21.093Z" fill="#F1B31C"/>
<path d="M20.5348 13.8372C21.4595 13.8372 22.2092 13.0875 22.2092 12.1628C22.2092 11.238 21.4595 10.4883 20.5348 10.4883C19.61 10.4883 18.8604 11.238 18.8604 12.1628C18.8604 13.0875 19.61 13.8372 20.5348 13.8372Z" fill="#F1B31C"/>
<path d="M16.0698 18.8605C16.9946 18.8605 17.7442 18.1108 17.7442 17.1861C17.7442 16.2613 16.9946 15.5117 16.0698 15.5117C15.145 15.5117 14.3954 16.2613 14.3954 17.1861C14.3954 18.1108 15.145 18.8605 16.0698 18.8605Z" fill="#F1B31C"/>
<path d="M9.93028 12.1628C10.855 12.1628 11.6047 11.4131 11.6047 10.4884C11.6047 9.56363 10.855 8.81396 9.93028 8.81396C9.00552 8.81396 8.25586 9.56363 8.25586 10.4884C8.25586 11.4131 9.00552 12.1628 9.93028 12.1628Z" fill="#F1B31C"/>
<path d="M35.6047 6.5814V23.8837C35.6047 24.1798 35.4871 24.4637 35.2777 24.6731C35.0684 24.8824 34.7845 25 34.4884 25H2.11628C1.82022 25 1.53629 24.8824 1.32695 24.6731C1.11761 24.4637 1 24.1798 1 23.8837V6.5814C1 6.28534 1.11761 6.00141 1.32695 5.79207C1.53629 5.58273 1.82022 5.46512 2.11628 5.46512L30.0233 1" stroke="black" stroke-width="1.11628" stroke-miterlimit="10" stroke-linecap="round" stroke-linejoin="round"/>
<path d="M30.0231 1C33.1057 1 35.6045 3.49935 35.6045 6.5814" stroke="black" stroke-width="1.11628" stroke-miterlimit="10" stroke-linecap="round" stroke-linejoin="round"/>
<path d="M7.1397 21.6512C8.68096 21.6512 9.9304 20.4018 9.9304 18.8605C9.9304 17.3193 8.68096 16.0698 7.1397 16.0698C5.59844 16.0698 4.349 17.3193 4.349 18.8605C4.349 20.4018 5.59844 21.6512 7.1397 21.6512Z" stroke="black" stroke-width="1.11628" stroke-miterlimit="10" stroke-linecap="round" stroke-linejoin="round"/>
<path d="M29.4649 13.8372C31.0062 13.8372 32.2556 12.5878 32.2556 11.0465C32.2556 9.50524 31.0062 8.2558 29.4649 8.2558C27.9236 8.2558 26.6742 9.50524 26.6742 11.0465C26.6742 12.5878 27.9236 13.8372 29.4649 13.8372Z" stroke="black" stroke-width="1.11628" stroke-miterlimit="10" stroke-linecap="round" stroke-linejoin="round"/>
<path d="M25.5583 21.093C26.4831 21.093 27.2328 20.3434 27.2328 19.4186C27.2328 18.4939 26.4831 17.7442 25.5583 17.7442C24.6336 17.7442 23.8839 18.4939 23.8839 19.4186C23.8839 20.3434 24.6336 21.093 25.5583 21.093Z" stroke="black" stroke-width="1.11628" stroke-miterlimit="10" stroke-linecap="round" stroke-linejoin="round"/>
<path d="M20.5351 13.8372C21.4599 13.8372 22.2096 13.0876 22.2096 12.1628C22.2096 11.2381 21.4599 10.4884 20.5351 10.4884C19.6104 10.4884 18.8607 11.2381 18.8607 12.1628C18.8607 13.0876 19.6104 13.8372 20.5351 13.8372Z" stroke="black" stroke-width="1.11628" stroke-miterlimit="10" stroke-linecap="round" stroke-linejoin="round"/>
<path d="M16.0698 18.8605C16.9946 18.8605 17.7442 18.1108 17.7442 17.1861C17.7442 16.2613 16.9946 15.5117 16.0698 15.5117C15.145 15.5117 14.3954 16.2613 14.3954 17.1861C14.3954 18.1108 15.145 18.8605 16.0698 18.8605Z" stroke="black" stroke-width="1.11628" stroke-miterlimit="10" stroke-linecap="round" stroke-linejoin="round"/>
<path d="M9.93028 12.1628C10.855 12.1628 11.6047 11.4131 11.6047 10.4884C11.6047 9.56363 10.855 8.81396 9.93028 8.81396C9.00552 8.81396 8.25586 9.56363 8.25586 10.4884C8.25586 11.4131 9.00552 12.1628 9.93028 12.1628Z" stroke="black" stroke-width="1.11628" stroke-miterlimit="10" stroke-linecap="round" stroke-linejoin="round"/>
</svg>
