<svg width="26" height="19" viewBox="0 0 26 19" fill="none" xmlns="http://www.w3.org/2000/svg">
<path d="M21.129 1C23.267 1 25 2.73342 25 4.87097V16.871C25 17.0763 24.9184 17.2732 24.7732 17.4184C24.6281 17.5636 24.4311 17.6452 24.2258 17.6452H1.77419C1.56886 17.6452 1.37195 17.5636 1.22676 17.4184C1.08157 17.2732 1 17.0763 1 16.871V4.87097C1 4.66564 1.08157 4.46872 1.22676 4.32353C1.37195 4.17834 1.56886 4.09677 1.77419 4.09677L6.80645 3.29161L21.129 1Z" fill="#FCEA2B"/>
<path d="M5.25812 15.3226C6.32705 15.3226 7.1936 14.456 7.1936 13.3871C7.1936 12.3181 6.32705 11.4516 5.25812 11.4516C4.18918 11.4516 3.32263 12.3181 3.32263 13.3871C3.32263 14.456 4.18918 15.3226 5.25812 15.3226Z" fill="#F1B31C"/>
<path d="M20.7418 9.90319C21.8107 9.90319 22.6772 9.03665 22.6772 7.96771C22.6772 6.89877 21.8107 6.03223 20.7418 6.03223C19.6728 6.03223 18.8063 6.89877 18.8063 7.96771C18.8063 9.03665 19.6728 9.90319 20.7418 9.90319Z" fill="#F1B31C"/>
<path d="M18.032 14.9355C18.6734 14.9355 19.1933 14.4156 19.1933 13.7742C19.1933 13.1328 18.6734 12.6129 18.032 12.6129C17.3907 12.6129 16.8707 13.1328 16.8707 13.7742C16.8707 14.4156 17.3907 14.9355 18.032 14.9355Z" fill="#F1B31C"/>
<path d="M14.5483 9.90321C15.1896 9.90321 15.7095 9.38328 15.7095 8.74192C15.7095 8.10055 15.1896 7.58063 14.5483 7.58063C13.9069 7.58063 13.387 8.10055 13.387 8.74192C13.387 9.38328 13.9069 9.90321 14.5483 9.90321Z" fill="#F1B31C"/>
<path d="M11.4516 13.3871C12.0929 13.3871 12.6129 12.8672 12.6129 12.2258C12.6129 11.5844 12.0929 11.0645 11.4516 11.0645C10.8102 11.0645 10.2903 11.5844 10.2903 12.2258C10.2903 12.8672 10.8102 13.3871 11.4516 13.3871Z" fill="#F1B31C"/>
<path d="M7.19352 8.74195C7.83488 8.74195 8.35481 8.22203 8.35481 7.58066C8.35481 6.9393 7.83488 6.41937 7.19352 6.41937C6.55215 6.41937 6.03223 6.9393 6.03223 7.58066C6.03223 8.22203 6.55215 8.74195 7.19352 8.74195Z" fill="#F1B31C"/>
<path d="M25 4.87097V16.871C25 17.0763 24.9184 17.2732 24.7732 17.4184C24.6281 17.5636 24.4311 17.6452 24.2258 17.6452H1.77419C1.56886 17.6452 1.37195 17.5636 1.22676 17.4184C1.08157 17.2732 1 17.0763 1 16.871V4.87097C1 4.66564 1.08157 4.46872 1.22676 4.32353C1.37195 4.17834 1.56886 4.09677 1.77419 4.09677L21.129 1" stroke="black" stroke-width="0.774193" stroke-miterlimit="10" stroke-linecap="round" stroke-linejoin="round"/>
<path d="M21.1289 1C23.2668 1 24.9999 2.73342 24.9999 4.87097" stroke="black" stroke-width="0.774193" stroke-miterlimit="10" stroke-linecap="round" stroke-linejoin="round"/>
<path d="M5.25812 15.3226C6.32705 15.3226 7.1936 14.456 7.1936 13.3871C7.1936 12.3181 6.32705 11.4516 5.25812 11.4516C4.18918 11.4516 3.32263 12.3181 3.32263 13.3871C3.32263 14.456 4.18918 15.3226 5.25812 15.3226Z" stroke="black" stroke-width="0.774193" stroke-miterlimit="10" stroke-linecap="round" stroke-linejoin="round"/>
<path d="M20.7418 9.90319C21.8107 9.90319 22.6772 9.03665 22.6772 7.96771C22.6772 6.89877 21.8107 6.03223 20.7418 6.03223C19.6728 6.03223 18.8063 6.89877 18.8063 7.96771C18.8063 9.03665 19.6728 9.90319 20.7418 9.90319Z" stroke="black" stroke-width="0.774193" stroke-miterlimit="10" stroke-linecap="round" stroke-linejoin="round"/>
<path d="M18.0324 14.9355C18.6737 14.9355 19.1937 14.4156 19.1937 13.7742C19.1937 13.1328 18.6737 12.6129 18.0324 12.6129C17.391 12.6129 16.8711 13.1328 16.8711 13.7742C16.8711 14.4156 17.391 14.9355 18.0324 14.9355Z" stroke="black" stroke-width="0.774193" stroke-miterlimit="10" stroke-linecap="round" stroke-linejoin="round"/>
<path d="M14.5485 9.90321C15.1899 9.90321 15.7098 9.38328 15.7098 8.74192C15.7098 8.10055 15.1899 7.58063 14.5485 7.58063C13.9071 7.58063 13.3872 8.10055 13.3872 8.74192C13.3872 9.38328 13.9071 9.90321 14.5485 9.90321Z" stroke="black" stroke-width="0.774193" stroke-miterlimit="10" stroke-linecap="round" stroke-linejoin="round"/>
<path d="M11.4516 13.3871C12.0929 13.3871 12.6129 12.8672 12.6129 12.2258C12.6129 11.5844 12.0929 11.0645 11.4516 11.0645C10.8102 11.0645 10.2903 11.5844 10.2903 12.2258C10.2903 12.8672 10.8102 13.3871 11.4516 13.3871Z" stroke="black" stroke-width="0.774193" stroke-miterlimit="10" stroke-linecap="round" stroke-linejoin="round"/>
<path d="M7.19352 8.74195C7.83488 8.74195 8.35481 8.22203 8.35481 7.58066C8.35481 6.9393 7.83488 6.41937 7.19352 6.41937C6.55215 6.41937 6.03223 6.9393 6.03223 7.58066C6.03223 8.22203 6.55215 8.74195 7.19352 8.74195Z" stroke="black" stroke-width="0.774193" stroke-miterlimit="10" stroke-linecap="round" stroke-linejoin="round"/>
</svg>
