<svg width="35" height="41" viewBox="0 0 35 41" fill="none" xmlns="http://www.w3.org/2000/svg">
<path d="M30.2696 11.139C30.6485 11.5195 30.9988 11.9175 31.3371 12.3219L33.6456 7.76137C24.6313 -1.25379 10.0136 -1.25379 1 7.76137L3.30852 12.3219C3.64684 11.9175 3.99709 11.5195 4.37601 11.139C11.5276 3.98814 23.118 3.98814 30.2696 11.139Z" fill="#F4AA41"/>
<path d="M31.3378 12.3219C30.999 11.9123 30.6426 11.5176 30.2695 11.139C23.1179 3.98817 11.5275 3.98817 4.3759 11.139C3.99699 11.5195 3.64673 11.9175 3.30762 12.3219L17.3227 40.0058L31.3378 12.3219Z" fill="#FCEA2B"/>
<path d="M13.3424 18.5128C15.5406 18.5128 17.3226 16.7308 17.3226 14.5326C17.3226 12.3344 15.5406 10.5524 13.3424 10.5524C11.1442 10.5524 9.36218 12.3344 9.36218 14.5326C9.36218 16.7308 11.1442 18.5128 13.3424 18.5128Z" fill="#EA5A47"/>
<path d="M23.691 16.9207C25.0099 16.9207 26.0791 15.8515 26.0791 14.5325C26.0791 13.2136 25.0099 12.1444 23.691 12.1444C22.3721 12.1444 21.3029 13.2136 21.3029 14.5325C21.3029 15.8515 22.3721 16.9207 23.691 16.9207Z" fill="#EA5A47"/>
<path d="M18.1188 26.4731C19.4378 26.4731 20.507 25.4039 20.507 24.085C20.507 22.7661 19.4378 21.6969 18.1188 21.6969C16.7999 21.6969 15.7307 22.7661 15.7307 24.085C15.7307 25.4039 16.7999 26.4731 18.1188 26.4731Z" fill="#EA5A47"/>
<path d="M30.4152 11.139C30.7942 11.5195 31.1444 11.9175 31.4827 12.3219L33.7913 7.76137C24.7769 -1.25379 10.1592 -1.25379 1.14563 7.76137L3.45415 12.3219C3.79247 11.9175 4.14272 11.5195 4.52164 11.139C11.6733 3.98814 23.2636 3.98814 30.4152 11.139Z" stroke="black" stroke-width="1.59208" stroke-miterlimit="10" stroke-linecap="round" stroke-linejoin="round"/>
<path d="M31.4834 12.3219C31.1447 11.9123 30.7882 11.5176 30.4151 11.139C23.2635 3.98817 11.6732 3.98817 4.52153 11.139C4.14262 11.5195 3.79236 11.9175 3.45325 12.3219L17.4683 40.0058L31.4834 12.3219Z" stroke="black" stroke-width="1.59208" stroke-miterlimit="10" stroke-linecap="round" stroke-linejoin="round"/>
<path d="M13.4884 18.5127C15.6866 18.5127 17.4686 16.7307 17.4686 14.5325C17.4686 12.3343 15.6866 10.5523 13.4884 10.5523C11.2902 10.5523 9.50818 12.3343 9.50818 14.5325C9.50818 16.7307 11.2902 18.5127 13.4884 18.5127Z" stroke="black" stroke-width="1.59208" stroke-miterlimit="10" stroke-linecap="round" stroke-linejoin="round"/>
<path d="M23.8369 16.9207C25.1558 16.9207 26.225 15.8515 26.225 14.5325C26.225 13.2136 25.1558 12.1444 23.8369 12.1444C22.5179 12.1444 21.4487 13.2136 21.4487 14.5325C21.4487 15.8515 22.5179 16.9207 23.8369 16.9207Z" stroke="black" stroke-width="1.59208" stroke-miterlimit="10" stroke-linecap="round" stroke-linejoin="round"/>
<path d="M18.2645 26.4731C19.5834 26.4731 20.6526 25.4039 20.6526 24.085C20.6526 22.7661 19.5834 21.6969 18.2645 21.6969C16.9455 21.6969 15.8763 22.7661 15.8763 24.085C15.8763 25.4039 16.9455 26.4731 18.2645 26.4731Z" stroke="black" stroke-width="1.59208" stroke-miterlimit="10" stroke-linecap="round" stroke-linejoin="round"/>
</svg>
