<svg width="13" height="25" viewBox="0 0 13 25" fill="none" xmlns="http://www.w3.org/2000/svg">
<path d="M11.7921 5.39357C11.9282 9.5433 8.21228 11.0839 6.96308 13.9671V17.3434C6.96308 17.9637 6.46768 18.4591 5.84732 18.4591C5.23142 18.4591 4.73156 17.9637 4.73156 17.3434V12.9406C6.2905 10.1994 9.36419 9.60713 9.49362 5.32662C9.49362 2.80054 6.57345 2.5814 5.92854 2.57069H5.90623C3.33239 3.10046 3.16815 4.79775 2.65312 6.83245C2.35543 7.51128 1.9551 7.74514 1.35884 7.73845C1.06771 7.68626 0.80921 7.52062 0.640159 7.27792C0.471108 7.03523 0.405337 6.73534 0.457301 6.44417C0.719728 5.21594 0.7956 3.48115 1.50612 2.64969C2.7156 1.24829 3.65686 0.437359 5.60274 0.343636C5.70986 0.343636 5.82143 0.339172 5.92854 0.339172C5.96871 0.339172 6.00888 0.339172 6.04905 0.343636C9.73998 0.450749 11.6725 1.67898 11.793 5.3958L11.7921 5.39357Z" fill="#D22F27"/>
<path d="M5.64653 24C6.38599 24 6.98544 23.4005 6.98544 22.6611C6.98544 21.9216 6.38599 21.3221 5.64653 21.3221C4.90707 21.3221 4.30762 21.9216 4.30762 22.6611C4.30762 23.4005 4.90707 24 5.64653 24Z" fill="#D22F27"/>
<path d="M5.80253 23.8326C6.44956 23.8326 6.97408 23.3081 6.97408 22.6611C6.97408 22.014 6.44956 21.4895 5.80253 21.4895C5.1555 21.4895 4.63098 22.014 4.63098 22.6611C4.63098 23.3081 5.1555 23.8326 5.80253 23.8326Z" stroke="black" stroke-width="0.781032" stroke-miterlimit="10" stroke-linecap="round" stroke-linejoin="round"/>
<path d="M5.96759 0.89484C8.89981 0.89484 11.3366 2.42611 11.3366 5.45161C11.3366 7.08999 11.1224 8.36419 9.68084 9.8053C7.91526 11.5709 6.47459 12.6376 6.46388 13.6208C6.43487 16.2209 6.46165 17.3153 6.46209 17.3519C6.4634 17.5265 6.39531 17.6945 6.27279 17.819C6.15026 17.9434 5.98334 18.0141 5.8087 18.0155H5.80335C5.62956 18.0155 5.46282 17.9469 5.33943 17.8245C5.21604 17.7021 5.14602 17.5359 5.1446 17.3621C5.1446 17.3255 5.11783 16.2191 5.14684 13.606C5.16246 12.164 6.76692 10.8715 8.8891 8.75024C9.86115 7.77997 9.99325 6.64547 9.99325 5.56943C9.99325 4.10466 8.66996 2.18332 5.98366 2.18332C3.60128 2.18332 2.19007 3.73066 2.19007 6.44642C2.19955 6.53454 2.19062 6.62366 2.16386 6.70815C2.13709 6.79263 2.09307 6.87064 2.03458 6.93723C1.97609 7.00381 1.90441 7.05752 1.82408 7.09496C1.74375 7.1324 1.65653 7.15274 1.56792 7.1547C1.47041 7.15262 1.37444 7.12998 1.28628 7.08824C1.19813 7.0465 1.11979 6.98662 1.05638 6.91251C0.992969 6.8384 0.945927 6.75173 0.91833 6.65818C0.890733 6.56464 0.883203 6.46631 0.896234 6.36965C0.896234 1.95928 4.14979 0.893501 5.96625 0.893501M5.96625 0.000892969C3.7508 0.000892969 0.00362569 1.34204 0.00362569 6.36965C-0.010975 6.58419 0.0186233 6.79944 0.0905868 7.00207C0.16255 7.20471 0.275347 7.39041 0.421992 7.54768C0.568637 7.70496 0.746007 7.83045 0.94312 7.91639C1.14023 8.00233 1.35289 8.04689 1.56792 8.04731C1.77386 8.04605 1.9774 8.00313 2.16631 7.92114C2.35522 7.83914 2.52559 7.71977 2.66715 7.5702C2.80871 7.42064 2.91854 7.24397 2.99003 7.05084C3.06152 6.85771 3.09319 6.65211 3.08313 6.44642C3.08313 4.9089 3.58656 3.07593 5.98366 3.07593C8.1335 3.07593 9.10064 4.53401 9.10064 5.56943C9.10064 6.62449 8.95961 7.41892 8.25892 8.11872C7.92329 8.45345 7.60106 8.76765 7.29624 9.06489C5.54092 10.7756 4.27253 12.0114 4.25467 13.5949C4.23013 15.8023 4.24485 16.9596 4.25244 17.3545C4.25317 17.5583 4.29403 17.7599 4.37267 17.9478C4.45131 18.1357 4.56619 18.3063 4.71077 18.4499C4.85534 18.5934 5.02677 18.7071 5.21527 18.7844C5.40377 18.8616 5.60565 18.901 5.80937 18.9003C6.0131 18.8996 6.21469 18.8587 6.40263 18.7801C6.59057 18.7015 6.76117 18.5866 6.90471 18.442C7.04825 18.2974 7.16191 18.126 7.23919 17.9375C7.31648 17.749 7.35588 17.5471 7.35515 17.3434L7.35426 17.3099C7.34712 16.9261 7.33283 15.7996 7.35693 13.6288C7.3614 13.2548 8.29506 12.3693 9.11894 11.5883C9.48 11.246 9.88926 10.8581 10.3128 10.4346C11.9092 8.83816 12.2301 7.34349 12.2301 5.44937C12.2301 2.19135 9.71387 0 5.96848 0L5.96625 0.000892969Z" fill="black"/>
</svg>
